# AST/ASF file generated using VICON BodyLanguage
# -----------------------------------------------
:version 1.10
:name VICON
:units
  mass 1.0
  length 0.45
  angle deg
:documentation
   .ast/.asf automatically generated from VICON data using
   VICON BodyBuilder and BodyLanguage model FoxedUp or BRILLIANT.MOD
:root
   order TX TY TZ RX RY RZ
   axis XYZ
   position 0 0 0  
   orientation 0 0 0 
:bonedata
  begin
     id 1 
     name lhipjoint
     direction 0.671379 -0.66392 0.329334 
     length 2.38647 
     axis 0 0 0  XYZ
  end
  begin
     id 2 
     name lfemur
     direction 0.34202 -0.939693 0  
     length 6.48179  
     axis 0 0 20  XYZ
    dof rx ry rz
    limits (-160.0 20.0)
           (-70.0 70.0)
           (-60.0 70.0)
  end
  begin
     id 3 
     name ltibia
     direction 0.34202 -0.939693 0   
     length 6.86524   
     axis 0 0 20   XYZ
    dof rx
    limits (-10.0 170.0)
  end
  begin
     id 4 
     name lfoot
     direction 0.204886 -0.562919 0.800715   
     length 1.73031   
     axis -90 7.62852e-016 20   XYZ
    dof rx rz
    limits (-45.0 90.0)
           (-70.0 20.0)
  end
  begin
     id 5 
     name ltoes
     direction 1.53548e-011 -4.21841e-011 1   
     length 0.828161   
     axis -90 7.62852e-016 20   XYZ
    dof rx
    limits (-90.0 20.0)
  end
  begin
     id 6 
     name rhipjoint
     direction -0.662732 -0.670855 0.332775   
     length 2.3618  
     axis 0 0 0  XYZ 
  end
  begin
     id 7 
     name rfemur
     direction -0.34202 -0.939693 0   
     length 6.3025   
     axis 0 0 -20   XYZ
    dof rx ry rz
    limits (-160.0 20.0)
           (-70.0 70.0)
           (-70.0 60.0)
  end
  begin
     id 8 
     name rtibia
     direction -0.34202 -0.939693 0   
     length 6.8732   
     axis 0 0 -20   XYZ
    dof rx
    limits (-10.0 170.0)
 end
 begin
     id 9 
     name rfoot
     direction -0.173856 -0.477665 0.861168   
     length 1.54784  
     axis -90 -7.62852e-016 -20   XYZ
    dof rx rz
    limits (-45.0 90.0)
           (-20.0 70.0)
  end
  begin
     id 10 
     name rtoes
     direction -1.53562e-011 -4.21802e-011 1   
     length 0.759618   
     axis -90 -7.62852e-016 -20   XYZ
    dof rx
    limits (-90.0 20.0)
  end
  begin
     id 11 
     name lowerback
     direction -0.0278357 0.999497 -0.0151789   
     length 1.97203   
     axis 0 0 0   XYZ
    dof rx ry rz
    limits (-20.0 45.0)
           (-30.0 30.0)
           (-30.0 30.0)
  end
  begin
     id 12 
     name upperback
     direction -0.00360622 0.997542 0.0699804   
     length 1.94709   
     axis 0 0 0   XYZ
    dof rx ry rz
    limits (-20.0 45.0)
           (-30.0 30.0)
           (-30.0 30.0)
  end
  begin
     id 13 
     name thorax
     direction 0.00907706 0.997048 0.0762461   
     length 1.95722   
     axis 0 0 0   XYZ
    dof rx ry rz
    limits (-20.0 45.0)
           (-30.0 30.0)
           (-30.0 30.0)
  end
  begin
     id 14 
     name lowerneck
     direction -0.0481835 0.99872 -0.0153927   
     length 1.63078   
     axis 0 0 0   XYZ
    dof rx ry rz
    limits (-20.0 45.0)
           (-30.0 30.0)
           (-30.0 30.0)
  end
  begin
     id 15 
     name upperneck
     direction 0.0859716 0.979226 -0.183644   
     length 1.62591   
     axis 0 0 0   XYZ
    dof rx ry rz
    limits (-20.0 45.0)
           (-30.0 30.0)
           (-30.0 30.0)
  end
  begin
     id 16
     name head
     direction 0.0324821 0.997629 -0.0606773  
     length 1.64811  
     axis 0 0 0   XYZ
    dof rx ry rz
    limits (-20.0 45.0)
           (-30.0 30.0)
           (-30.0 30.0)
  end
  begin
     id 17 
     name lclavicle
     direction 0.939609 0.311019 0.142835  
     length 3.70647  
     axis 0 0 0   XYZ
    dof ry rz
    limits (-20.0 10.0)
           (0.0 20.0)
  end
  begin
     id 18 
     name lhumerus
     direction 1 -4.48963e-011 -1.59838e-027   
     length 4.59207   
     axis 180 -30 -90   XYZ
    dof rx ry rz
    limits (-60.0 90.0)
           (-90.0 90.0)
           (-90.0 90.0)
  end
  begin
     id 19
     name lradius
     direction 1 -4.48957e-011 -1.3483e-026   
     length 2.98109   
     axis 180 -30 -90   XYZ
    dof rx
    limits (-10.0 170.0)
  end
  begin
     id 20
     name lwrist
     direction 1 -4.48954e-011 -3.11579e-026   
     length 1.49055   
     axis 2.00652e-014 90 90   XYZ
    dof ry
    limits (-180.0 0.0)
 end
  begin
     id 21 
     name lhand
     direction 1 -4.4911e-011 -6.23158e-026   
     length 0.480203   
     axis 3.97628e-014 90 90   XYZ
    dof rx rz
    limits (-90.0 90.0)
           (-45.0 45.0)
  end
  begin
     id 22 
     name lfingers
     direction 1 -4.48893e-011 -1.24632e-025   
     length 0.387152   
     axis 7.95256e-014 90 90   XYZ
    dof rx
    limits (0.0 90.0)
  end
  begin
     id 23
     name lthumb
     direction 0.707107 -6.35013e-011 0.707107   
     length 0.555875   
     axis -90 45 2.85299e-015   XYZ
    dof rx rz
    limits (-45.0 45.0)
           (-45.0 45.0)
  end
  begin
     id 24 
     name rclavicle
     direction -0.950396 0.30392 0.0661859   
     length 3.70894  
     axis 0 0 0   XYZ 
    dof ry rz
    limits (-10.0 20.0)
           (-20.0 0.0)
  end
  begin
     id 25 
     name rhumerus
     direction -1 -4.48957e-011 -2.96677e-027  
     length 4.76508   
     axis 180 30 90   XYZ
    dof rx ry rz
    limits (-90.0 60.0)
           (-90.0 90.0)
           (-90.0 90.0)
  end
  begin
     id 26 
     name rradius
     direction -1 -4.48974e-011 -1.44501e-026   
     length 2.78902   
     axis 180 30 90   XYZ
    dof rx
    limits (-10.0 170.0)
  end
  begin
     id 27 
     name rwrist
     direction -1 -4.48978e-011 -3.11579e-026   
     length 1.39451   
     axis 2.00652e-014 -90 -90   XYZ
    dof ry
    limits (-180.0 0.0)
  end
  begin
     id 28
     name rhand
     direction -1 -4.48956e-011 -6.23158e-026   
     length 0.721303   
     axis 3.97628e-014 -90 -90   XYZ
    dof rx rz
    limits (-90.0 90.0)
           (-45.0 45.0)
  end
  begin
     id 29
     name rfingers
     direction -1 -4.4899e-011 -1.24632e-025   
     length 0.581533   
     axis 7.95256e-014 -90 -90   XYZ
    dof rx
    limits (0.0 90.0)
  end
  begin
     id 30
     name rthumb
     direction -0.707107 -6.34911e-011 0.707107   
     length 0.834968   
     axis -90 -45 -2.85299e-015   XYZ
    dof rx rz
    limits (-45.0 45.0)
           (-45.0 45.0)
  end
:hierarchy
  begin
    root lhipjoint rhipjoint lowerback
    lhipjoint lfemur
    lfemur ltibia
    ltibia lfoot
    lfoot ltoes
    rhipjoint rfemur
    rfemur rtibia
    rtibia rfoot
    rfoot rtoes
    lowerback upperback
    upperback thorax
    thorax lowerneck lclavicle rclavicle
    lowerneck upperneck
    upperneck head
    lclavicle lhumerus
    lhumerus lradius
    lradius lwrist
    lwrist lhand lthumb
    lhand lfingers
    rclavicle rhumerus
    rhumerus rradius
    rradius rwrist
    rwrist rhand rthumb
    rhand rfingers
  end

#!OML:ASF I:\salsa\salsa 7_09\Patient 1\Session 1\dancerfemale.ASF
:FULLY-SPECIFIED
:DEGREES
211
root 22.4249 15.7715 -0.6729 -172.48 -81.9484 177.392
lowerback 4.42986 -0.992805 0.792959
upperback -7.92988 -1.74978 -2.57524
thorax -11.0798 -1.14873 -2.95338
lowerneck -5.2788 1.01146 -5.39623
upperneck 11.9573 0.0819563 12.9723
head 4.39026 0.415233 4.92421
rclavicle 1.96797e-014 8.74653e-015
rhumerus -44.8838 -16.0285 -87.9442
rradius 33.0594
rwrist -3.03258
rhand 4.50165 38.9666
rfingers 7.12502
rthumb 29.8945 11.3603
lclavicle 1.96797e-014 8.74653e-015
lhumerus -49.5996 16.5107 79.6469
lradius 49.6861
lwrist -6.25786
lhand -27.6484 38.9255
lfingers 7.12502
lthumb -1.04637 68.9027
rfemur -16.2691 0.688885 24.6606
rtibia 32.1585
rfoot -22.5717 -7.7087
rtoes 5.37192
lfemur -20.2977 2.0582 -19.6658
ltibia 45.1692
lfoot -28.1082 7.17538
ltoes -29.9276
212
root 22.4474 15.7315 -0.695999 -179.439 -81.8728 183.624
lowerback 5.56363 -1.2336 0.972312
upperback -7.58965 -1.94827 -1.93058
thorax -11.3735 -1.20411 -2.31296
lowerneck -5.70042 1.27201 -5.12502
upperneck 11.8032 0.523711 12.4357
head 4.3799 0.635111 4.73079
rclavicle 2.0276e-014 7.95139e-015
rhumerus -43.5857 -15.8506 -87.9212
rradius 32.4594
rwrist -2.47099
rhand 4.43966 38.9985
rfingers 7.12502
rthumb 29.8354 11.3815
lclavicle 2.0276e-014 7.95139e-015
lhumerus -50.4329 16.2056 80.1768
lradius 51.1924
lwrist -5.64338
lhand -27.8405 38.9249
lfingers 7.12502
lthumb -1.23191 68.9011
rfemur -15.5033 0.134802 25.7429
rtibia 32.139
rfoot -22.5409 -7.15146
rtoes 6.0226
lfemur -20.9874 2.20667 -18.5221
ltibia 47.7982
lfoot -27.6221 7.15213
ltoes -31.1935
213
root 22.4729 15.6984 -0.720797 -185.972 -81.9231 189.554
lowerback 6.62939 -1.47142 1.10792
upperback -7.27915 -2.15295 -1.33208
thorax -11.6588 -1.2642 -1.69037
lowerneck -5.89865 1.44101 -4.55098
upperneck 11.4415 0.864037 11.5361
head 4.28658 0.78791 4.3612
rclavicle -1.74931e-014 0
rhumerus -42.3164 -15.8948 -87.8857
rradius 31.9436
rwrist -1.80559
rhand 4.16556 39.0262
rfingers 7.12502
rthumb 29.5737 11.3626
lclavicle -1.74931e-014 0
lhumerus -51.1801 15.526 80.8493
lradius 52.6537
lwrist -5.01972
lhand -28.0539 39.2402
lfingers 7.12502
lthumb -1.438 69.2151
rfemur -14.8469 -0.706003 26.7634
rtibia 32.0157
rfoot -22.464 -6.56751
rtoes 6.64191
lfemur -21.9021 2.00583 -17.4129
ltibia 50.4148
lfoot -26.4796 7.25364
ltoes -31.2347
214
root 22.4978 15.6746 -0.748862 -190.478 -82.0376 193.604
lowerback 7.43181 -1.65276 0.799477
upperback -6.95217 -2.34084 -0.741699
thorax -11.7409 -1.28123 -0.830897
lowerneck -6.15205 1.56315 -4.13248
upperneck 11.0813 1.14491 10.6897
head 4.20991 0.909102 4.03571
rclavicle -2.5345e-014 5.96354e-015
rhumerus -40.9512 -15.9551 -87.7839
rradius 31.5024
rwrist -1.17059
rhand 3.98058 39.0432
rfingers 7.12502
rthumb 29.3972 11.3484
lclavicle -2.5345e-014 5.96354e-015
lhumerus -51.739 14.7642 81.7126
lradius 53.9339
lwrist -4.58373
lhand -28.2994 39.2775
lfingers 7.12502
lthumb -1.67503 69.2507
rfemur -14.3645 -1.58324 27.4725
rtibia 31.8603
rfoot -22.206 -6.17687
rtoes 6.63058
lfemur -23.0147 1.79424 -16.6001
ltibia 52.9044
lfoot -25.0527 7.24932
ltoes -30.4285
215
root 22.5112 15.6562 -0.775987 -194.061 -82.0377 196.779
lowerback 7.97501 -1.73053 0.289038
upperback -6.57058 -2.41757 -0.108168
thorax -11.5853 -1.2305 0.161413
lowerneck -6.81288 1.65753 -4.19945
upperneck 11.019 1.37022 10.2537
head 4.29001 1.01908 3.9306
rclavicle -1.65488e-014 5.1684e-015
rhumerus -39.5798 -15.7577 -87.7176
rradius 31.2802
rwrist -0.861905
rhand 3.90832 39.1463
rfingers 7.12502
rthumb 29.3282 11.4394
lclavicle -1.65488e-014 5.1684e-015
lhumerus -52.2863 13.9672 82.7149
lradius 55.2729
lwrist -4.19865
lhand -28.3814 39.0056
lfingers 7.12502
lthumb -1.75431 68.9781
rfemur -13.9573 -2.28603 28.0382
rtibia 31.8341
rfoot -21.9733 -5.83755
rtoes 6.4244
lfemur -24.0911 1.6752 -15.9114
ltibia 55.1932
lfoot -24.0556 6.75872
ltoes -30.2596
